<svg xmlns="http://www.w3.org/2000/svg" viewBox="1901 595 16 16">
  <defs>
    <style>
      .cls-1 {
        fill: #ec1c24;
      }
    </style>
  </defs>
  <g id="Group_255" data-name="Group 255" transform="translate(1657 407)">
    <g id="paintbrush" transform="translate(244 188)">
      <path id="XMLID_503_" class="cls-1" d="M163.078,6.226a.539.539,0,0,0,0-.763l-.81-.81a.54.54,0,0,0-.685-.065l-1.7,1.157,1.15-1.714a.539.539,0,0,0-.067-.682l-1.756-1.756a.539.539,0,0,0-.615-.1l-.3.146.145-.323a.539.539,0,0,0-.11-.6l-.551-.551a.539.539,0,0,0-.763,0L152.729,4.44l6.067,6.067Z" transform="translate(-147.237)"/>
      <path id="XMLID_1199_" class="cls-1" d="M4.7,145.622l-1.24,1.24a.539.539,0,0,0,0,.763L4.631,148.8a1.051,1.051,0,0,1-.179,1.63,30.972,30.972,0,0,0-3.883,2.63,1.948,1.948,0,0,0,2.755,2.755,30.973,30.973,0,0,0,2.63-3.883,1.053,1.053,0,0,1,1.63-.179l1.176,1.176a.54.54,0,0,0,.763,0l1.24-1.24Zm-2.176,9.322a.762.762,0,1,1,0-1.078A.762.762,0,0,1,2.519,154.944Z" transform="translate(0 -140.385)"/>
    </g>
  </g>
</svg>
