<svg xmlns="http://www.w3.org/2000/svg" viewBox="7828 555 16.776 10">
  <defs>
    <style>
      .cls-1 {
        opacity: 0.3;
      }
    </style>
  </defs>
  <g id="eye" class="cls-1" transform="translate(7828 456.275)">
    <path id="Path_277" data-name="Path 277" d="M8.388,98.725c-3.205,0-6.112,1.754-8.257,4.6a.664.664,0,0,0,0,.793c2.145,2.852,5.051,4.605,8.257,4.605s6.112-1.754,8.257-4.6a.664.664,0,0,0,0-.793C14.5,100.479,11.593,98.725,8.388,98.725Zm.23,8.521a3.528,3.528,0,1,1,3.291-3.291A3.531,3.531,0,0,1,8.618,107.246Zm-.106-1.627a1.9,1.9,0,1,1,1.774-1.774A1.9,1.9,0,0,1,8.511,105.619Z" transform="translate(0 0)"/>
  </g>
</svg>
