<svg xmlns="http://www.w3.org/2000/svg" viewBox="3570 2975 206.115 49.25">
  <defs>
    <style>
      .cls-1 {
        fill: #ec1c24;
      }

      .cls-2, .cls-8 {
        fill: #000001;
      }

      .cls-3, .cls-7 {
        fill: #fff;
      }

      .cls-4 {
        fill: none;
        stroke: #000001;
        stroke-miterlimit: 2.613;
        stroke-width: 2px;
      }

      .cls-5 {
        fill: #fff100;
      }

      .cls-5, .cls-6, .cls-7, .cls-8 {
        fill-rule: evenodd;
      }

      .cls-6 {
        fill: #ce0c16;
      }
    </style>
  </defs>
  <g id="Group_330" data-name="Group 330" transform="translate(3340 2961)">
    <g id="master_on_ge_copy" data-name="master_on_ge copy" transform="translate(160.2 -231.1)">
      <g id="Group_2" data-name="Group 2" transform="translate(69.8 246.815)">
        <path id="Path_1" data-name="Path 1" class="cls-1" d="M72,248.5h4.5l5.631,16.924L87.793,248.5h4.5l4.082,24.253H91.9l-2.592-15.315-5.155,15.315H80.076l-5.095-15.315-2.652,15.315H67.8Z" transform="translate(-67.8 -248.5)"/>
      </g>
      <g id="Group_3" data-name="Group 3" transform="translate(99.698 252.715)">
        <path id="Path_2" data-name="Path 2" class="cls-2" d="M185.563,268.717h4.5v17.937h-4.5v-1.907a8.984,8.984,0,0,1-2.652,1.817,7.648,7.648,0,0,1-2.86.566,8.018,8.018,0,0,1-6.019-2.682,9.34,9.34,0,0,1-2.533-6.7,9.556,9.556,0,0,1,2.443-6.793A7.877,7.877,0,0,1,179.9,268.3a8.007,8.007,0,0,1,3.039.6,8.486,8.486,0,0,1,2.622,1.818Zm-4.737,3.695a4.53,4.53,0,0,0-3.456,1.49A5.279,5.279,0,0,0,176,277.686a5.372,5.372,0,0,0,1.4,3.814,4.472,4.472,0,0,0,3.456,1.49,4.658,4.658,0,0,0,3.516-1.49,5.42,5.42,0,0,0,1.4-3.873,5.249,5.249,0,0,0-1.4-3.784A4.783,4.783,0,0,0,180.826,272.412Z" transform="translate(-171.5 -268.3)"/>
      </g>
      <g id="Group_4" data-name="Group 4" transform="translate(120.593 252.715)">
        <path id="Path_3" data-name="Path 3" class="cls-2" d="M264.065,271.22l-2.771,2.771a4.61,4.61,0,0,0-3.069-1.668,2.019,2.019,0,0,0-1.192.328.963.963,0,0,0-.149,1.46,4.991,4.991,0,0,0,1.341.834l1.639.834a9.877,9.877,0,0,1,3.575,2.622,5.148,5.148,0,0,1,.983,3.128,5.242,5.242,0,0,1-1.758,3.993,6.686,6.686,0,0,1-4.708,1.609,7.418,7.418,0,0,1-6.257-3.069l2.771-3.009a6.36,6.36,0,0,0,1.847,1.49,4.028,4.028,0,0,0,1.877.566,2.33,2.33,0,0,0,1.43-.417,1.278,1.278,0,0,0,.536-.983c0-.685-.655-1.371-1.966-2.026l-1.52-.745c-2.89-1.46-4.35-3.277-4.35-5.482a4.725,4.725,0,0,1,1.639-3.635,5.968,5.968,0,0,1,4.2-1.52,7.269,7.269,0,0,1,3.277.775A6.743,6.743,0,0,1,264.065,271.22Z" transform="translate(-251.7 -268.3)"/>
      </g>
      <g id="Group_5" data-name="Group 5" transform="translate(136.074 246.517)">
        <path id="Path_4" data-name="Path 4" class="cls-2" d="M302.594,247.5h4.5v6.615h2.682v3.873h-2.682v14.063h-4.5V257.988H300.3v-3.873h2.294Z" transform="translate(-300.3 -247.5)"/>
      </g>
      <g id="Group_6" data-name="Group 6" transform="translate(147.068 252.685)">
        <path id="Path_5" data-name="Path 5" class="cls-2" d="M356.06,278.926H341.61a4.822,4.822,0,0,0,1.669,3.039,5.244,5.244,0,0,0,3.456,1.132,6.009,6.009,0,0,0,4.32-1.758l3.784,1.788a9.2,9.2,0,0,1-3.4,2.98,10.457,10.457,0,0,1-4.708.953,9.414,9.414,0,0,1-6.883-2.652,9.12,9.12,0,0,1-2.652-6.674,9.418,9.418,0,0,1,2.652-6.823A8.827,8.827,0,0,1,346.5,268.2a9.134,9.134,0,0,1,6.883,2.711,9.861,9.861,0,0,1,2.652,7.151Zm-4.5-3.546a4.532,4.532,0,0,0-1.758-2.443,5.054,5.054,0,0,0-3.039-.953,5.532,5.532,0,0,0-3.307,1.043,5.97,5.97,0,0,0-1.639,2.324h9.743Z" transform="translate(-337.2 -268.2)"/>
      </g>
      <g id="Group_7" data-name="Group 7" transform="translate(168.461 252.685)">
        <path id="Path_6" data-name="Path 6" class="cls-2" d="M409.03,268.647h3.844v2.264a4.756,4.756,0,0,1,1.668-2.026,4.123,4.123,0,0,1,2.264-.685,4.184,4.184,0,0,1,1.818.447l-1.4,3.873a3,3,0,0,0-1.311-.387,2.052,2.052,0,0,0-1.758,1.281c-.477.864-.715,2.533-.715,5.035l.03.864v7.24H409V268.647Z" transform="translate(-409 -268.2)"/>
      </g>
      <g id="Group_8" data-name="Group 8" transform="translate(179.621 246.219)">
        <path id="Path_7" data-name="Path 7" class="cls-2" d="M455.763,246.5a12.1,12.1,0,0,1,8.849,3.724,12.361,12.361,0,0,1,3.695,9.088,12.513,12.513,0,0,1-12.544,12.633,11.92,11.92,0,0,1-9.058-3.784,12.488,12.488,0,0,1-3.605-8.968,12.842,12.842,0,0,1,1.669-6.406,12.065,12.065,0,0,1,4.618-4.618A12.977,12.977,0,0,1,455.763,246.5Zm-.03,4.5a7.556,7.556,0,0,0-5.661,2.354,8.18,8.18,0,0,0-2.294,5.959,7.775,7.775,0,0,0,2.89,6.376,7.9,7.9,0,0,0,5.155,1.817,7.593,7.593,0,0,0,5.6-2.384,8.047,8.047,0,0,0,2.324-5.84,8.165,8.165,0,0,0-2.324-5.87A7.7,7.7,0,0,0,455.733,251Z" transform="translate(-443.1 -246.5)"/>
        <path id="Path_8" data-name="Path 8" class="cls-2" d="M540.56,268.647h4.5v1.847a10.213,10.213,0,0,1,2.771-1.788,6.856,6.856,0,0,1,2.533-.506,6.14,6.14,0,0,1,4.529,1.877,6.378,6.378,0,0,1,1.549,4.678v11.858H552v-7.866a18.426,18.426,0,0,0-.3-4.261,2.8,2.8,0,0,0-1.013-1.609,2.885,2.885,0,0,0-1.758-.566,3.26,3.26,0,0,0-2.354.924,4.959,4.959,0,0,0-1.371,2.533A21.17,21.17,0,0,0,545,279.4v7.181h-4.5V268.647Z" transform="translate(-511.479 -261.734)"/>
      </g>
      <g id="Group_9" data-name="Group 9" transform="translate(228.098 266.361)">
        <path id="Path_9" data-name="Path 9" d="M608.362,314.1a2.543,2.543,0,1,1-1.817.745A2.569,2.569,0,0,1,608.362,314.1Z" transform="translate(-605.8 -314.1)"/>
      </g>
      <g id="Group_10" data-name="Group 10" transform="translate(235.828 252.655)">
        <path id="Path_10" data-name="Path 10" class="cls-2" d="M649.163,268.577h4.469v15.374c0,3.039-.6,5.274-1.818,6.7-1.639,1.937-4.112,2.89-7.389,2.89a12.8,12.8,0,0,1-4.439-.656,8.058,8.058,0,0,1-3.039-1.937,7.7,7.7,0,0,1-1.818-3.1h4.976a3.973,3.973,0,0,0,1.7,1.132,6.785,6.785,0,0,0,2.443.387,6.289,6.289,0,0,0,2.92-.566,3.369,3.369,0,0,0,1.549-1.46,7.435,7.435,0,0,0,.447-3.069,6.927,6.927,0,0,1-2.5,1.7,7.661,7.661,0,0,1-2.95.507,8.152,8.152,0,0,1-6.108-2.592,10.049,10.049,0,0,1,.149-13.438,7.879,7.879,0,0,1,5.691-2.354,7.393,7.393,0,0,1,2.92.566,9.5,9.5,0,0,1,2.771,1.877v-1.966Zm-4.648,3.754a4.67,4.67,0,0,0-3.516,1.43,5.38,5.38,0,0,0,.06,7.24,4.831,4.831,0,0,0,3.546,1.43,4.671,4.671,0,0,0,3.456-1.4,5.545,5.545,0,0,0,0-7.3A4.714,4.714,0,0,0,644.515,272.331Z" transform="translate(-635.1 -268.1)"/>
      </g>
      <g id="Group_11" data-name="Group 11" transform="translate(257.055 252.685)">
        <path id="Path_11" data-name="Path 11" class="cls-2" d="M728.56,278.926H714.11a4.823,4.823,0,0,0,1.668,3.039,5.244,5.244,0,0,0,3.456,1.132,6.009,6.009,0,0,0,4.32-1.758l3.784,1.788a9.194,9.194,0,0,1-3.4,2.98,10.457,10.457,0,0,1-4.708.953,9.414,9.414,0,0,1-6.883-2.652,9.12,9.12,0,0,1-2.652-6.674,9.418,9.418,0,0,1,2.652-6.823A8.827,8.827,0,0,1,719,268.2a9.134,9.134,0,0,1,6.883,2.711,9.861,9.861,0,0,1,2.652,7.151Zm-4.5-3.546a4.533,4.533,0,0,0-1.758-2.443,5.054,5.054,0,0,0-3.039-.953,5.532,5.532,0,0,0-3.307,1.043,5.971,5.971,0,0,0-1.639,2.324h9.743Z" transform="translate(-709.7 -268.2)"/>
      </g>
      <path id="Path_2303" data-name="Path 2303" class="cls-3" d="M12.752,0A12.842,12.842,0,1,1,0,12.842,12.8,12.8,0,0,1,12.752,0Z" transform="translate(179.681 246.1)"/>
      <ellipse id="Ellipse_2" data-name="Ellipse 2" class="cls-4" cx="12.752" cy="12.842" rx="12.752" ry="12.842" transform="translate(179.681 246.1)"/>
      <path id="Path_12" data-name="Path 12" class="cls-5" d="M478.741,267.49c-.149-.6.149-3.1-2.086-3.635-.953,1.341-.924,1.1-.6-.238a1.837,1.837,0,0,0-2.294-.03c.089.387.3.924.387,1.281a2.786,2.786,0,0,0-.477.119,6.843,6.843,0,0,0-.447-1.132c-2.324.536-1.937,3.426-2.086,3.635-.685-.209-.983.179-1.043.834.924,1.1,6.436.864,7.747.626,3.188-.328,2.026-1.758.894-1.46" transform="translate(-282.434 -12.004)"/>
      <path id="Path_13" data-name="Path 13" class="cls-6" d="M463.875,303.158l2.443-.089.834,2.652,5.78.06.8-2.979,2.056.328.924.8.179,2.86-13.646.06-.149-1.758.238-1.192Z" transform="translate(-277.52 -39.806)"/>
      <path id="Path_14" data-name="Path 14" class="cls-6" d="M461.462,306.265h.06l14.421-.089h.179c.3-4.708-.626-4.886-3.963-4.976h0l-.685,3.039H466.2c-.149-.983-.447-2.175-.626-3.009-5.065-.238-4.082,2.294-4.112,5.035m.864-.775c-.03-2.264-.149-3.158,2.562-3.218l.656,2.8H472.1c.328-1.162.566-2.2.745-2.831,2.652.209,2.443.864,2.443,3.218C470.967,305.461,466.647,305.461,462.326,305.491Z" transform="translate(-276.329 -38.683)"/>
      <path id="Path_15" data-name="Path 15" class="cls-7" d="M470.9,283.543l.209-.953,3.1.3,3.873-.06,1.877-.328.179,1.46-.775,1.013-.6.8-.655,1.609-1.192.983-2.026.3-1.966-.894-.894-2.086-.655-.834Z" transform="translate(-282.996 -25.555)"/>
      <path id="Path_16" data-name="Path 16" class="cls-8" d="M477.115,268.58c-.983,1.043-.953.089-1.281,1.818-.417,2.682-4.827,3.1-5.542.209-.387-1.639.06-1.162-1.222-1.788-.03-.477-.03-.953-.06-1.4a28.637,28.637,0,0,0,4.022.447,24.061,24.061,0,0,0,3.993-.447c.06.387.06.775.089,1.162m-3.844,5.035c2.443-.149,2.95-1.4,3.605-3.426.119-.507.447-.268.8-.864.358-.3.3-1.639.328-2.145.209-.06.447-.089.655-.149.089-.745.358-1.817-.8-2.145,0-.06-.03-.149-.03-.119-.089-.417-.179-.834-.238-1.251a3.919,3.919,0,0,0-2.89-2.622,2.519,2.519,0,0,0-3.1-.119c-2.056.477-2.92,1.52-3.218,3.993-.924.477-.983.387-.924,1.847.089.536.149.417.715.536.06.775-.179,2,.6,2.413C469.875,270.189,469.279,273.764,473.271,273.615Zm-1.281-11.948a1.549,1.549,0,0,1,2.086,0l-.268,1.162c.179.03.328.06.506.089.179-.358.3-.775.447-1.132,2.235.536,1.937,3.039,2.086,3.635a1.162,1.162,0,0,1,.924.3c-.03.685.179.6-1.877.953-1.192.209-6.734.447-7.568-.566.06-.655.387-.626.894-.715.149-.209-.238-3.1,2.086-3.635.149.358.238.655.447,1.132a2.79,2.79,0,0,0,.477-.119A5.671,5.671,0,0,0,471.99,261.667Z" transform="translate(-280.57 -9.966)"/>
    </g>
    <g id="Group_329" data-name="Group 329" transform="translate(-3342 -2872)">
      <path id="Path_2338" data-name="Path 2338" d="M2.6,2.25a2.4,2.4,0,0,1-1.089-.234,1.771,1.771,0,0,1-.729-.653A1.807,1.807,0,0,1,.522.387,2.365,2.365,0,0,1,.558-.058,1.781,1.781,0,0,1,.657-.4h.756a2.259,2.259,0,0,0-.1.711,1.344,1.344,0,0,0,.319.9,1.2,1.2,0,0,0,.968.374A1.1,1.1,0,0,0,3.6,1.134,2.2,2.2,0,0,0,3.9-.09V-1.323q0-.18.013-.351T3.942-2H3.888a1.493,1.493,0,0,1-.63.558,2,2,0,0,1-.873.189,1.864,1.864,0,0,1-1.4-.5A2.145,2.145,0,0,1,.5-3.3,3.166,3.166,0,0,1,.6-4.14a4.229,4.229,0,0,1,.247-.684h.792a7.277,7.277,0,0,0-.23.7,3.238,3.238,0,0,0-.094.842A1.507,1.507,0,0,0,1.62-2.241a1.115,1.115,0,0,0,.864.333A1.241,1.241,0,0,0,3.9-3.3V-4.824h.792v4.77a2.437,2.437,0,0,1-.549,1.7A1.976,1.976,0,0,1,2.6,2.25Zm5.382,0a2.443,2.443,0,0,1-1.148-.257,1.871,1.871,0,0,1-.756-.7,1.9,1.9,0,0,1-.266-1,2.323,2.323,0,0,1,.049-.491,2.288,2.288,0,0,1,.113-.383h.756A3.1,3.1,0,0,0,6.646-.2a2.469,2.469,0,0,0-.04.428A1.583,1.583,0,0,0,6.75.891,1.167,1.167,0,0,0,7.2,1.4a1.442,1.442,0,0,0,.783.194,1.314,1.314,0,0,0,.756-.2A1.213,1.213,0,0,0,9.18.846,1.929,1.929,0,0,0,9.324.09,1.487,1.487,0,0,0,8.982-.918a1.341,1.341,0,0,0-1.071-.4H7.56v-.657h.414a1.1,1.1,0,0,0,.918-.356,1.322,1.322,0,0,0,.279-.841,1.1,1.1,0,0,0-.292-.765,1.075,1.075,0,0,0-.842-.324,1.174,1.174,0,0,0-.851.283,1.034,1.034,0,0,0-.292.779,1.719,1.719,0,0,0,.018.243,2.683,2.683,0,0,0,.054.27H6.192a1.967,1.967,0,0,1-.068-.293A1.894,1.894,0,0,1,6.1-3.258,1.511,1.511,0,0,1,6.349-4.1,1.7,1.7,0,0,1,7.033-4.7a2.234,2.234,0,0,1,1-.216,2.132,2.132,0,0,1,1,.225,1.745,1.745,0,0,1,.68.612,1.555,1.555,0,0,1,.247.855,1.536,1.536,0,0,1-.346,1.035,1.584,1.584,0,0,1-.913.522v.036a1.857,1.857,0,0,1,.707.274,1.577,1.577,0,0,1,.531.581,1.848,1.848,0,0,1,.2.9,2.246,2.246,0,0,1-.27,1.125,1.873,1.873,0,0,1-.751.738A2.355,2.355,0,0,1,7.983,2.25Zm5.139,0a2.169,2.169,0,0,1-1.089-.265,1.867,1.867,0,0,1-.729-.743A2.309,2.309,0,0,1,11.043.117a2.323,2.323,0,0,1,.05-.49,2.288,2.288,0,0,1,.113-.382h.756a3.1,3.1,0,0,0-.085.373,2.469,2.469,0,0,0-.041.427,1.843,1.843,0,0,0,.32,1.1,1.112,1.112,0,0,0,.967.446,1.1,1.1,0,0,0,.995-.459,2.2,2.2,0,0,0,.3-1.224V-2.826a1.719,1.719,0,0,0-.283-1.057,1.01,1.01,0,0,0-.859-.374,1.22,1.22,0,0,0-.851.3,1.117,1.117,0,0,0-.328.873,2.911,2.911,0,0,0,.023.378,2.081,2.081,0,0,0,.058.3h-.756a3,3,0,0,1-.076-.292,1.779,1.779,0,0,1-.04-.382A1.8,1.8,0,0,1,11.569-4.1a1.678,1.678,0,0,1,.711-.612,2.332,2.332,0,0,1,.995-.207,1.886,1.886,0,0,1,1.408.536,2.072,2.072,0,0,1,.527,1.516V-.054a2.437,2.437,0,0,1-.549,1.7A1.976,1.976,0,0,1,13.122,2.25Zm9.045,0a2.674,2.674,0,0,0-1.139-1.026A3.456,3.456,0,0,0,19.5.873a3.114,3.114,0,0,0-.864.121,3.749,3.749,0,0,0-.819.347L17.505.765a4.282,4.282,0,0,1,.6-.234,2.649,2.649,0,0,1,.635-.117V.387A4.243,4.243,0,0,1,17.555-.2a2.816,2.816,0,0,1-.855-.981,3.072,3.072,0,0,1-.319-1.462,2.726,2.726,0,0,1,.454-1.647,1.542,1.542,0,0,1,1.328-.621,1.341,1.341,0,0,1,.81.229,1.3,1.3,0,0,1,.459.626h.045a1.335,1.335,0,0,1,.477-.626,1.4,1.4,0,0,1,.828-.229,1.411,1.411,0,0,1,.841.229,1.292,1.292,0,0,1,.464.626h.045a1.272,1.272,0,0,1,.472-.626,1.372,1.372,0,0,1,.806-.229,1.561,1.561,0,0,1,.977.306,1.848,1.848,0,0,1,.6.855,3.657,3.657,0,0,1,.2,1.269,4.485,4.485,0,0,1-.122,1.071,4.242,4.242,0,0,1-.374.972l-.684-.252a3.668,3.668,0,0,0,.288-.859,4.972,4.972,0,0,0,.081-.941,2.548,2.548,0,0,0-.274-1.319.852.852,0,0,0-.76-.445.737.737,0,0,0-.63.306,1.437,1.437,0,0,0-.225.864v1.449h-.756V-3.087a1.485,1.485,0,0,0-.221-.837.814.814,0,0,0-.733-.333.841.841,0,0,0-.706.306,1.377,1.377,0,0,0-.239.864v1.449H19.08V-3.087a1.534,1.534,0,0,0-.212-.837.719.719,0,0,0-.653-.333.867.867,0,0,0-.751.4,2.153,2.153,0,0,0-.274,1.215,2.715,2.715,0,0,0,.2,1.093,2.321,2.321,0,0,0,.554.788,2.989,2.989,0,0,0,.8.526,4.718,4.718,0,0,0,.931.311,9.037,9.037,0,0,1,1.215.347A4.329,4.329,0,0,1,22,1a2.538,2.538,0,0,1,.774.923ZM28.134.09a2.415,2.415,0,0,1-1.013-.207,1.668,1.668,0,0,1-.72-.612,1.8,1.8,0,0,1-.265-1.008,1.993,1.993,0,0,1,.036-.382,1.565,1.565,0,0,1,.081-.293h.756a2.081,2.081,0,0,0-.059.3,2.912,2.912,0,0,0-.022.378,1.117,1.117,0,0,0,.328.873,1.259,1.259,0,0,0,.878.3A1.2,1.2,0,0,0,29-.868a1.209,1.209,0,0,0,.315-.913,1.288,1.288,0,0,0-.2-.756,4.6,4.6,0,0,0-.455-.549q-.216-.216-.432-.455a2.082,2.082,0,0,1-.355-.549,1.778,1.778,0,0,1-.14-.734h.792a1.124,1.124,0,0,0,.212.684,4.94,4.94,0,0,0,.491.567q.225.225.432.473A2.23,2.23,0,0,1,30-2.534a1.921,1.921,0,0,1,.135.752,1.83,1.83,0,0,1-.261.981,1.788,1.788,0,0,1-.711.657A2.191,2.191,0,0,1,28.134.09ZM88.92,2.25a2.073,2.073,0,0,0-.545-.657,2.7,2.7,0,0,0-.738-.428,2.1,2.1,0,0,0-.743-.149,2.727,2.727,0,0,0-.688.081,3.836,3.836,0,0,0-.671.252l-.27-.558a3.321,3.321,0,0,1,.477-.18,2.862,2.862,0,0,1,.684-.1V.486A3.527,3.527,0,0,1,84.992-.7a3.215,3.215,0,0,1-.508-1.859,3.4,3.4,0,0,1,.2-1.211,1.854,1.854,0,0,1,.6-.842,1.575,1.575,0,0,1,.986-.306,1.685,1.685,0,0,1,.954.252,1.339,1.339,0,0,1,.531.765H87.8a1.412,1.412,0,0,1,.625-.765,1.85,1.85,0,0,1,.94-.252,1.878,1.878,0,0,1,1.494.643,2.668,2.668,0,0,1,.558,1.8,3,3,0,0,1-.27,1.327,2.014,2.014,0,0,1-.733.846A1.907,1.907,0,0,1,89.379,0a1.889,1.889,0,0,1-1.494-.648,2.672,2.672,0,0,1-.567-1.818v-.441a1.556,1.556,0,0,0-.279-1.022.92.92,0,0,0-.738-.328.83.83,0,0,0-.738.437,2.381,2.381,0,0,0-.27,1.246,3.108,3.108,0,0,0,.274,1.4,2.493,2.493,0,0,0,.72.882,4.632,4.632,0,0,0,.967.562q.522.225.95.437a3.587,3.587,0,0,1,.76.5,2.41,2.41,0,0,1,.558.72Zm.441-2.907a1.025,1.025,0,0,0,.94-.491,2.5,2.5,0,0,0,.3-1.318,2.458,2.458,0,0,0-.3-1.305,1.022,1.022,0,0,0-.936-.477,1.024,1.024,0,0,0-.931.477,2.429,2.429,0,0,0-.3,1.305,2.532,2.532,0,0,0,.3,1.318A1.006,1.006,0,0,0,89.361-.657Zm5,.747a2.415,2.415,0,0,1-1.012-.207,1.668,1.668,0,0,1-.72-.612,1.8,1.8,0,0,1-.266-1.008,1.993,1.993,0,0,1,.036-.382,1.565,1.565,0,0,1,.081-.293h.756a2.082,2.082,0,0,0-.058.3,2.91,2.91,0,0,0-.023.378,1.117,1.117,0,0,0,.329.873,1.259,1.259,0,0,0,.877.3,1.2,1.2,0,0,0,.864-.3,1.209,1.209,0,0,0,.315-.913,1.288,1.288,0,0,0-.2-.756,4.6,4.6,0,0,0-.454-.549q-.216-.216-.432-.455A2.082,2.082,0,0,1,94.1-4.09a1.778,1.778,0,0,1-.14-.734h.792a1.124,1.124,0,0,0,.212.684,4.94,4.94,0,0,0,.491.567q.225.225.432.473a2.229,2.229,0,0,1,.342.567,1.921,1.921,0,0,1,.135.752A1.83,1.83,0,0,1,96.1-.8a1.788,1.788,0,0,1-.711.657A2.191,2.191,0,0,1,94.365.09Zm45.216,2.16a2.169,2.169,0,0,1-1.089-.265,1.867,1.867,0,0,1-.729-.743A2.309,2.309,0,0,1,137.5.117a2.323,2.323,0,0,1,.049-.49,2.288,2.288,0,0,1,.113-.382h.756a3.094,3.094,0,0,0-.085.373,2.47,2.47,0,0,0-.04.427,1.843,1.843,0,0,0,.319,1.1,1.112,1.112,0,0,0,.968.446,1.1,1.1,0,0,0,.994-.459,2.2,2.2,0,0,0,.3-1.224V-2.826a1.719,1.719,0,0,0-.283-1.057,1.01,1.01,0,0,0-.859-.374,1.22,1.22,0,0,0-.851.3,1.117,1.117,0,0,0-.328.873,2.912,2.912,0,0,0,.022.378,2.081,2.081,0,0,0,.059.3h-.756A3,3,0,0,1,137.8-2.7a1.78,1.78,0,0,1-.04-.382,1.8,1.8,0,0,1,.266-1.008,1.678,1.678,0,0,1,.711-.612,2.332,2.332,0,0,1,.995-.207,1.886,1.886,0,0,1,1.408.536,2.072,2.072,0,0,1,.527,1.516V-.054a2.437,2.437,0,0,1-.549,1.7A1.976,1.976,0,0,1,139.581,2.25ZM143.37,0a6.335,6.335,0,0,1-.4-1.206,5.992,5.992,0,0,1-.126-1.278v-.342a4.7,4.7,0,0,1,.59-2.569,2.723,2.723,0,0,1,1.8-1.165q.5-.108,1.008-.2t.99-.171l.135.693q-.315.045-.689.1t-.715.117q-.342.059-.576.112a3.946,3.946,0,0,0-.72.252,1.907,1.907,0,0,0-.63.477,2.247,2.247,0,0,0-.441.864h.027a1.306,1.306,0,0,1,.531-.491,1.437,1.437,0,0,1,.558-.112,1.239,1.239,0,0,1,.765.229,1.326,1.326,0,0,1,.45.626h.045a1.272,1.272,0,0,1,.473-.626,1.372,1.372,0,0,1,.805-.229,1.624,1.624,0,0,1,1.008.306,1.863,1.863,0,0,1,.612.855,3.585,3.585,0,0,1,.207,1.269,5.607,5.607,0,0,1-.135,1.278A6.855,6.855,0,0,1,148.518,0h-.81a6.221,6.221,0,0,0,.419-1.206,5.838,5.838,0,0,0,.13-1.287,2.514,2.514,0,0,0-.279-1.319.891.891,0,0,0-.8-.445.737.737,0,0,0-.63.306,1.437,1.437,0,0,0-.225.864v1.449h-.756V-3.087a1.56,1.56,0,0,0-.207-.837.716.716,0,0,0-.657-.333.884.884,0,0,0-.792.445,2.514,2.514,0,0,0-.279,1.319,5.838,5.838,0,0,0,.13,1.287A6.222,6.222,0,0,0,144.18,0Zm8.73.09A1.907,1.907,0,0,1,151.061-.2a2,2,0,0,1-.734-.855,3.13,3.13,0,0,1-.27-1.363,2.73,2.73,0,0,1,.563-1.845,1.875,1.875,0,0,1,1.49-.648,1.9,1.9,0,0,1,.95.252,1.4,1.4,0,0,1,.634.765h.054a1.393,1.393,0,0,1,1.5-1.017,1.51,1.51,0,0,1,.949.3,1.857,1.857,0,0,1,.594.828,3.357,3.357,0,0,1,.2,1.211,6.088,6.088,0,0,1-.135,1.359A6.771,6.771,0,0,1,156.447,0h-.81a6.855,6.855,0,0,0,.414-1.206,5.651,5.651,0,0,0,.135-1.287,2.584,2.584,0,0,0-.27-1.319.828.828,0,0,0-.738-.445.92.92,0,0,0-.738.328,1.556,1.556,0,0,0-.279,1.022v.486A2.766,2.766,0,0,1,153.6-.567,1.874,1.874,0,0,1,152.1.09Zm.018-.657a1,1,0,0,0,.927-.5,2.644,2.644,0,0,0,.3-1.354,2.569,2.569,0,0,0-.3-1.341,1.017,1.017,0,0,0-.936-.486,1.017,1.017,0,0,0-.936.486,2.568,2.568,0,0,0-.3,1.341,2.612,2.612,0,0,0,.3,1.354A1.02,1.02,0,0,0,152.118-.567ZM162.639.09a2.01,2.01,0,0,1-1.584-.616,2.633,2.633,0,0,1-.549-1.8V-6.84h.792v4.59a2.127,2.127,0,0,0,.315,1.224,1.155,1.155,0,0,0,1.026.459,1.275,1.275,0,0,0,.743-.2,1.224,1.224,0,0,0,.436-.544,1.953,1.953,0,0,0,.144-.765,1.547,1.547,0,0,0-.121-.639,3.053,3.053,0,0,0-.3-.522,5.513,5.513,0,0,1-.4-.666,2.007,2.007,0,0,1-.184-.918h.792a1.471,1.471,0,0,0,.162.707,5.892,5.892,0,0,0,.378.608,3.16,3.16,0,0,1,.351.634,2.139,2.139,0,0,1,.144.823,2.272,2.272,0,0,1-.27,1.13,1.887,1.887,0,0,1-.756.747A2.29,2.29,0,0,1,162.639.09ZM166.32,0a6.855,6.855,0,0,1-.414-1.206,5.606,5.606,0,0,1-.135-1.278,2.727,2.727,0,0,1,.536-1.769,1.881,1.881,0,0,1,1.552-.661,1.876,1.876,0,0,1,1.562.661,2.76,2.76,0,0,1,.527,1.769,5.606,5.606,0,0,1-.135,1.278A6.855,6.855,0,0,1,169.4,0h-.81a6.221,6.221,0,0,0,.419-1.206,5.838,5.838,0,0,0,.13-1.287,2.163,2.163,0,0,0-.337-1.319,1.113,1.113,0,0,0-.941-.445,1.113,1.113,0,0,0-.94.445,2.163,2.163,0,0,0-.338,1.319,5.837,5.837,0,0,0,.131,1.287A6.221,6.221,0,0,0,167.13,0Zm6.651,2.25a2.443,2.443,0,0,1-1.148-.257,1.871,1.871,0,0,1-.756-.7,1.9,1.9,0,0,1-.266-1,2.323,2.323,0,0,1,.049-.491,2.288,2.288,0,0,1,.113-.383h.756a3.094,3.094,0,0,0-.085.374,2.47,2.47,0,0,0-.04.428,1.583,1.583,0,0,0,.144.666,1.167,1.167,0,0,0,.45.508,1.442,1.442,0,0,0,.783.194,1.314,1.314,0,0,0,.756-.2,1.213,1.213,0,0,0,.441-.544,1.929,1.929,0,0,0,.144-.756,1.487,1.487,0,0,0-.342-1.008,1.341,1.341,0,0,0-1.071-.4h-.351v-.657h.414a1.1,1.1,0,0,0,.918-.356,1.322,1.322,0,0,0,.279-.841,1.1,1.1,0,0,0-.293-.765,1.075,1.075,0,0,0-.841-.324,1.174,1.174,0,0,0-.851.283,1.034,1.034,0,0,0-.292.779,1.718,1.718,0,0,0,.018.243,2.68,2.68,0,0,0,.054.27h-.774a1.967,1.967,0,0,1-.068-.293,1.894,1.894,0,0,1-.022-.283,1.511,1.511,0,0,1,.247-.846,1.7,1.7,0,0,1,.684-.594,2.234,2.234,0,0,1,1-.216,2.132,2.132,0,0,1,1,.225,1.745,1.745,0,0,1,.68.612,1.555,1.555,0,0,1,.247.855,1.536,1.536,0,0,1-.346,1.035,1.584,1.584,0,0,1-.913.522v.036a1.857,1.857,0,0,1,.706.274,1.577,1.577,0,0,1,.531.581,1.848,1.848,0,0,1,.2.9,2.246,2.246,0,0,1-.27,1.125,1.873,1.873,0,0,1-.751.738A2.355,2.355,0,0,1,172.971,2.25ZM176.517,0a6.335,6.335,0,0,1-.4-1.206,5.992,5.992,0,0,1-.126-1.278v-.342a4.7,4.7,0,0,1,.59-2.569,2.723,2.723,0,0,1,1.8-1.165q.5-.108,1.008-.2t.99-.171l.135.693q-.315.045-.689.1t-.715.117q-.342.059-.576.112a3.946,3.946,0,0,0-.72.252,1.907,1.907,0,0,0-.63.477,2.247,2.247,0,0,0-.441.864h.027a1.306,1.306,0,0,1,.531-.491,1.437,1.437,0,0,1,.558-.112,1.239,1.239,0,0,1,.765.229,1.326,1.326,0,0,1,.45.626h.045a1.272,1.272,0,0,1,.473-.626,1.372,1.372,0,0,1,.805-.229,1.624,1.624,0,0,1,1.008.306,1.863,1.863,0,0,1,.612.855,3.585,3.585,0,0,1,.207,1.269,5.607,5.607,0,0,1-.135,1.278A6.855,6.855,0,0,1,181.665,0h-.81a6.221,6.221,0,0,0,.419-1.206,5.838,5.838,0,0,0,.13-1.287,2.514,2.514,0,0,0-.279-1.319.891.891,0,0,0-.8-.445.737.737,0,0,0-.63.306,1.437,1.437,0,0,0-.225.864v1.449h-.756V-3.087a1.56,1.56,0,0,0-.207-.837.716.716,0,0,0-.657-.333.884.884,0,0,0-.792.445,2.514,2.514,0,0,0-.279,1.319,5.838,5.838,0,0,0,.13,1.287A6.222,6.222,0,0,0,177.327,0Zm9.324,2.25a2.458,2.458,0,0,1-1.517-.437,2.492,2.492,0,0,1-.85-1.26,6.377,6.377,0,0,1-.27-1.976,7.69,7.69,0,0,1,.225-1.872,6.034,6.034,0,0,1,.585-1.53h.792a6.575,6.575,0,0,0-.581,1.539A7.437,7.437,0,0,0,184-1.44a6.522,6.522,0,0,0,.175,1.615,2.053,2.053,0,0,0,.581,1.044,1.58,1.58,0,0,0,1.1.365A1.609,1.609,0,0,0,187,1.206a1.5,1.5,0,0,0,.4-1.143,1.674,1.674,0,0,0-.148-.7,1.2,1.2,0,0,0-.473-.531,1.539,1.539,0,0,0-.828-.2h-.4v-.657h.594a1.288,1.288,0,0,0,.828-.212.717.717,0,0,0,.252-.58.969.969,0,0,0-.122-.513,1.077,1.077,0,0,0-.3-.324,3.126,3.126,0,0,1-.495-.455,1.057,1.057,0,0,1-.216-.716h.792a.6.6,0,0,0,.175.405,3.99,3.99,0,0,0,.383.342,1.962,1.962,0,0,1,.427.464,1.263,1.263,0,0,1,.176.706.96.96,0,0,1-.338.81,2.25,2.25,0,0,1-.841.387v.036a1.739,1.739,0,0,1,.648.275,1.554,1.554,0,0,1,.513.6,2.1,2.1,0,0,1,.2.963,2.069,2.069,0,0,1-.279,1.08,1.938,1.938,0,0,1-.81.738A2.813,2.813,0,0,1,185.841,2.25Zm5.355,0a2.169,2.169,0,0,1-1.089-.265,1.867,1.867,0,0,1-.729-.743,2.309,2.309,0,0,1-.261-1.125,2.323,2.323,0,0,1,.049-.49,2.288,2.288,0,0,1,.113-.382h.756a3.094,3.094,0,0,0-.085.373,2.47,2.47,0,0,0-.04.427,1.843,1.843,0,0,0,.319,1.1,1.112,1.112,0,0,0,.968.446,1.1,1.1,0,0,0,.994-.459,2.2,2.2,0,0,0,.3-1.224V-2.826a1.719,1.719,0,0,0-.283-1.057,1.01,1.01,0,0,0-.859-.374,1.22,1.22,0,0,0-.851.3,1.117,1.117,0,0,0-.328.873,2.912,2.912,0,0,0,.022.378,2.081,2.081,0,0,0,.059.3H189.5a3,3,0,0,1-.077-.292,1.78,1.78,0,0,1-.04-.382,1.8,1.8,0,0,1,.266-1.008,1.678,1.678,0,0,1,.711-.612,2.332,2.332,0,0,1,.995-.207,1.886,1.886,0,0,1,1.408.536,2.072,2.072,0,0,1,.527,1.516V-.054a2.437,2.437,0,0,1-.549,1.7A1.976,1.976,0,0,1,191.2,2.25ZM196.6.09a2.223,2.223,0,0,1-1.12-.275,1.876,1.876,0,0,1-.751-.81,2.908,2.908,0,0,1-.27-1.318A2.5,2.5,0,0,1,195-4.032a1.839,1.839,0,0,1,1.444-.612,1.8,1.8,0,0,1,.914.207,1.943,1.943,0,0,1,.58.5h.054q-.018-.1-.036-.279t-.018-.333v-.864a1.02,1.02,0,0,0-.189-.657.634.634,0,0,0-.522-.234.688.688,0,0,0-.495.18.675.675,0,0,0-.189.513v.378h-.765v-.378a.635.635,0,0,0-.193-.508.652.652,0,0,0-.436-.167,1.19,1.19,0,0,0-.329.045l-.311.09-.2-.6a2.789,2.789,0,0,1,.378-.126,1.858,1.858,0,0,1,.468-.054,1.286,1.286,0,0,1,.549.126.958.958,0,0,1,.441.531h.027a.943.943,0,0,1,.495-.531,1.664,1.664,0,0,1,.621-.126,1.6,1.6,0,0,1,.715.162,1.247,1.247,0,0,1,.527.495,1.635,1.635,0,0,1,.2.846v3.114a2.6,2.6,0,0,1-.549,1.791A2.018,2.018,0,0,1,196.6.09Zm0-.657a1.17,1.17,0,0,0,1.044-.45,1.99,1.99,0,0,0,.306-1.143V-2.3a2.835,2.835,0,0,0-.126-.886,1.112,1.112,0,0,0-.427-.589,1.472,1.472,0,0,0-.842-.207,1.131,1.131,0,0,0-.715.22,1.309,1.309,0,0,0-.423.607,2.534,2.534,0,0,0-.14.864,2.174,2.174,0,0,0,.324,1.265A1.135,1.135,0,0,0,196.6-.567ZM200.448,0a6.855,6.855,0,0,1-.414-1.206,5.606,5.606,0,0,1-.135-1.278,2.727,2.727,0,0,1,.536-1.769,1.881,1.881,0,0,1,1.552-.661,1.876,1.876,0,0,1,1.562.661,2.76,2.76,0,0,1,.527,1.769,5.606,5.606,0,0,1-.135,1.278A6.855,6.855,0,0,1,203.526,0h-.81a6.221,6.221,0,0,0,.419-1.206,5.838,5.838,0,0,0,.13-1.287,2.163,2.163,0,0,0-.337-1.319,1.113,1.113,0,0,0-.941-.445,1.113,1.113,0,0,0-.94.445,2.163,2.163,0,0,0-.338,1.319,5.837,5.837,0,0,0,.131,1.287A6.221,6.221,0,0,0,201.258,0Z" transform="translate(3573 2933)"/>
      <path id="Path_2339" data-name="Path 2339" class="cls-1" d="M35.775.09a2,2,0,0,1-1.584-.625A2.76,2.76,0,0,1,33.642-2.4V-6.84h.792v1.926q0,.135-.022.365T34.38-4.2h.054a1.943,1.943,0,0,1,.581-.5,1.8,1.8,0,0,1,.913-.207,1.809,1.809,0,0,1,1.444.635A2.813,2.813,0,0,1,37.917-2.4a2.619,2.619,0,0,1-.594,1.867A2.038,2.038,0,0,1,35.775.09Zm0-.657a1.124,1.124,0,0,0,1-.477A2.369,2.369,0,0,0,37.1-2.385a2.541,2.541,0,0,0-.319-1.364,1.057,1.057,0,0,0-.958-.508,1.185,1.185,0,0,0-1.1.482,2.648,2.648,0,0,0-.3,1.381v.144a2.175,2.175,0,0,0,.306,1.224A1.161,1.161,0,0,0,35.775-.567ZM40.851,2.25a2.169,2.169,0,0,1-1.089-.265,1.867,1.867,0,0,1-.729-.743A2.309,2.309,0,0,1,38.772.117a2.323,2.323,0,0,1,.049-.49,2.288,2.288,0,0,1,.112-.382h.756a3.094,3.094,0,0,0-.085.373,2.469,2.469,0,0,0-.041.427,1.843,1.843,0,0,0,.319,1.1,1.112,1.112,0,0,0,.967.446,1.1,1.1,0,0,0,.994-.459,2.2,2.2,0,0,0,.3-1.224V-2.826a1.719,1.719,0,0,0-.284-1.057A1.01,1.01,0,0,0,41-4.257a1.22,1.22,0,0,0-.85.3,1.117,1.117,0,0,0-.329.873,2.911,2.911,0,0,0,.023.378,2.081,2.081,0,0,0,.058.3H39.15a3,3,0,0,1-.076-.292,1.779,1.779,0,0,1-.041-.382A1.8,1.8,0,0,1,39.3-4.1a1.678,1.678,0,0,1,.711-.612A2.332,2.332,0,0,1,41-4.914a1.886,1.886,0,0,1,1.409.536,2.072,2.072,0,0,1,.527,1.516V-.054a2.437,2.437,0,0,1-.549,1.7A1.976,1.976,0,0,1,40.851,2.25Zm9.045,0a2.674,2.674,0,0,0-1.139-1.026A3.456,3.456,0,0,0,47.232.873a3.114,3.114,0,0,0-.864.121,3.749,3.749,0,0,0-.819.347L45.234.765a4.282,4.282,0,0,1,.6-.234,2.649,2.649,0,0,1,.635-.117V.387A4.243,4.243,0,0,1,45.283-.2a2.816,2.816,0,0,1-.855-.981,3.072,3.072,0,0,1-.319-1.462,2.726,2.726,0,0,1,.455-1.647,1.542,1.542,0,0,1,1.327-.621,1.341,1.341,0,0,1,.81.229,1.3,1.3,0,0,1,.459.626H47.2a1.335,1.335,0,0,1,.477-.626,1.4,1.4,0,0,1,.828-.229,1.411,1.411,0,0,1,.841.229,1.292,1.292,0,0,1,.464.626h.045a1.272,1.272,0,0,1,.472-.626,1.372,1.372,0,0,1,.806-.229,1.561,1.561,0,0,1,.976.306,1.848,1.848,0,0,1,.6.855,3.657,3.657,0,0,1,.2,1.269A4.486,4.486,0,0,1,52.8-1.413a4.242,4.242,0,0,1-.374.972l-.684-.252a3.668,3.668,0,0,0,.288-.859,4.972,4.972,0,0,0,.081-.941,2.548,2.548,0,0,0-.275-1.319.852.852,0,0,0-.761-.445.737.737,0,0,0-.63.306,1.437,1.437,0,0,0-.225.864v1.449h-.756V-3.087a1.485,1.485,0,0,0-.22-.837.814.814,0,0,0-.734-.333.841.841,0,0,0-.707.306,1.377,1.377,0,0,0-.238.864v1.449h-.756V-3.087a1.534,1.534,0,0,0-.211-.837.719.719,0,0,0-.653-.333.867.867,0,0,0-.752.4,2.153,2.153,0,0,0-.274,1.215,2.715,2.715,0,0,0,.2,1.093,2.321,2.321,0,0,0,.554.788,2.989,2.989,0,0,0,.8.526A4.718,4.718,0,0,0,47.4.072a9.037,9.037,0,0,1,1.215.347A4.329,4.329,0,0,1,49.725,1a2.538,2.538,0,0,1,.774.923ZM54.459,0a6.855,6.855,0,0,1-.414-1.206,5.607,5.607,0,0,1-.135-1.278,3.585,3.585,0,0,1,.207-1.269,1.863,1.863,0,0,1,.612-.855,1.624,1.624,0,0,1,1.008-.306,1.337,1.337,0,0,1,.815.229,1.314,1.314,0,0,1,.454.626h.045a1.272,1.272,0,0,1,.472-.626,1.372,1.372,0,0,1,.806-.229,1.624,1.624,0,0,1,1.008.306,1.863,1.863,0,0,1,.612.855,3.585,3.585,0,0,1,.207,1.269,5.607,5.607,0,0,1-.135,1.278A6.855,6.855,0,0,1,59.607,0H58.8a6.222,6.222,0,0,0,.418-1.206,5.838,5.838,0,0,0,.131-1.287,2.514,2.514,0,0,0-.279-1.319.891.891,0,0,0-.8-.445.737.737,0,0,0-.63.306,1.437,1.437,0,0,0-.225.864v1.449h-.756V-3.087a1.56,1.56,0,0,0-.207-.837.716.716,0,0,0-.657-.333A.884.884,0,0,0,55-3.812a2.514,2.514,0,0,0-.279,1.319,5.838,5.838,0,0,0,.131,1.287A6.222,6.222,0,0,0,55.269,0Zm9,.09a2.01,2.01,0,0,1-1.584-.616,2.633,2.633,0,0,1-.549-1.8V-6.84h.792v4.59a2.127,2.127,0,0,0,.315,1.224,1.155,1.155,0,0,0,1.026.459,1.275,1.275,0,0,0,.743-.2,1.224,1.224,0,0,0,.437-.544,1.953,1.953,0,0,0,.144-.765,1.547,1.547,0,0,0-.121-.639,3.052,3.052,0,0,0-.3-.522,5.512,5.512,0,0,1-.4-.666,2.007,2.007,0,0,1-.184-.918h.792a1.471,1.471,0,0,0,.162.707,5.889,5.889,0,0,0,.378.608,3.16,3.16,0,0,1,.351.634,2.139,2.139,0,0,1,.144.823,2.272,2.272,0,0,1-.27,1.13,1.887,1.887,0,0,1-.756.747A2.29,2.29,0,0,1,63.459.09Zm5.085,0a2.415,2.415,0,0,1-1.012-.207,1.668,1.668,0,0,1-.72-.612,1.8,1.8,0,0,1-.266-1.008,1.993,1.993,0,0,1,.036-.382,1.565,1.565,0,0,1,.081-.293h.756a2.082,2.082,0,0,0-.058.3,2.91,2.91,0,0,0-.023.378,1.117,1.117,0,0,0,.329.873,1.259,1.259,0,0,0,.877.3,1.2,1.2,0,0,0,.864-.3,1.209,1.209,0,0,0,.315-.913,1.288,1.288,0,0,0-.2-.756,4.6,4.6,0,0,0-.454-.549q-.216-.216-.432-.455a2.082,2.082,0,0,1-.355-.549,1.778,1.778,0,0,1-.14-.734h.792a1.124,1.124,0,0,0,.212.684,4.94,4.94,0,0,0,.491.567q.225.225.432.473a2.229,2.229,0,0,1,.342.567,1.921,1.921,0,0,1,.135.752,1.83,1.83,0,0,1-.261.981,1.788,1.788,0,0,1-.711.657A2.191,2.191,0,0,1,68.544.09Zm5.3,0a2,2,0,0,1-1.584-.625A2.76,2.76,0,0,1,71.712-2.4V-5.2a1.858,1.858,0,0,1,.211-.94,1.258,1.258,0,0,1,.581-.531,1.991,1.991,0,0,1,.828-.167h2.124v.666H73.44a1.031,1.031,0,0,0-.684.211.914.914,0,0,0-.252.734v.315q0,.135-.022.365T72.45-4.2H72.5a1.943,1.943,0,0,1,.58-.5A1.8,1.8,0,0,1,74-4.914a1.809,1.809,0,0,1,1.445.635A2.813,2.813,0,0,1,75.987-2.4a2.619,2.619,0,0,1-.594,1.867A2.038,2.038,0,0,1,73.845.09Zm0-.657a1.124,1.124,0,0,0,1-.477,2.369,2.369,0,0,0,.324-1.341,2.541,2.541,0,0,0-.319-1.364,1.057,1.057,0,0,0-.959-.508,1.452,1.452,0,0,0-.837.212,1.126,1.126,0,0,0-.432.607A3.1,3.1,0,0,0,72.5-2.5v.252A2.175,2.175,0,0,0,72.8-1.026,1.161,1.161,0,0,0,73.845-.567ZM77.526,0a6.856,6.856,0,0,1-.414-1.206,5.607,5.607,0,0,1-.135-1.278,2.727,2.727,0,0,1,.535-1.769,1.881,1.881,0,0,1,1.552-.661,1.876,1.876,0,0,1,1.562.661,2.76,2.76,0,0,1,.526,1.769,5.607,5.607,0,0,1-.135,1.278A6.856,6.856,0,0,1,80.6,0h-.81a6.222,6.222,0,0,0,.419-1.206,5.838,5.838,0,0,0,.131-1.287,2.163,2.163,0,0,0-.338-1.319,1.113,1.113,0,0,0-.94-.445,1.113,1.113,0,0,0-.94.445,2.163,2.163,0,0,0-.338,1.319,5.838,5.838,0,0,0,.131,1.287A6.222,6.222,0,0,0,78.336,0Zm24.309.09a2.038,2.038,0,0,1-1.548-.625A2.619,2.619,0,0,1,99.693-2.4a2.651,2.651,0,0,1,.544-1.8,1.827,1.827,0,0,1,1.445-.621,1.8,1.8,0,0,1,.913.207,1.943,1.943,0,0,1,.58.5h.054q-.018-.1-.036-.279t-.018-.333v-.414a1.221,1.221,0,0,0-.288-.828,1.2,1.2,0,0,0-.954-.333,1.437,1.437,0,0,0-.837.225.692.692,0,0,0-.324.594q0,.054,0,.108t.014.108h-.765a.97.97,0,0,1-.036-.171,1.388,1.388,0,0,1-.009-.153,1.034,1.034,0,0,1,.261-.7,1.734,1.734,0,0,1,.707-.472,2.73,2.73,0,0,1,.985-.171,2.081,2.081,0,0,1,1.494.513,1.776,1.776,0,0,1,.54,1.35V-2.4a2.76,2.76,0,0,1-.549,1.867A2,2,0,0,1,101.835.09Zm0-.657a1.161,1.161,0,0,0,1.044-.459,2.175,2.175,0,0,0,.306-1.224v-.144a2.434,2.434,0,0,0-.3-1.3,1.194,1.194,0,0,0-1.1-.472,1.065,1.065,0,0,0-.959.495,2.337,2.337,0,0,0-.319,1.287,2.369,2.369,0,0,0,.324,1.341A1.124,1.124,0,0,0,101.835-.567Zm5.256.657a2.415,2.415,0,0,1-1.012-.207,1.668,1.668,0,0,1-.72-.612,1.8,1.8,0,0,1-.266-1.008,1.993,1.993,0,0,1,.036-.382,1.565,1.565,0,0,1,.081-.293h.756a2.082,2.082,0,0,0-.058.3,2.91,2.91,0,0,0-.023.378,1.117,1.117,0,0,0,.329.873,1.259,1.259,0,0,0,.877.3,1.2,1.2,0,0,0,.864-.3,1.209,1.209,0,0,0,.315-.913,1.288,1.288,0,0,0-.2-.756,4.6,4.6,0,0,0-.454-.549q-.216-.216-.432-.455a2.082,2.082,0,0,1-.355-.549,1.778,1.778,0,0,1-.14-.734h.792a1.124,1.124,0,0,0,.212.684,4.94,4.94,0,0,0,.491.567q.225.225.432.473a2.229,2.229,0,0,1,.342.567,1.921,1.921,0,0,1,.135.752,1.83,1.83,0,0,1-.261.981,1.788,1.788,0,0,1-.711.657A2.191,2.191,0,0,1,107.091.09Zm5.3,0a2.01,2.01,0,0,1-1.584-.616,2.633,2.633,0,0,1-.549-1.8V-6.84h.792v4.59a2.127,2.127,0,0,0,.315,1.224,1.155,1.155,0,0,0,1.026.459,1.275,1.275,0,0,0,.743-.2,1.224,1.224,0,0,0,.437-.544,1.953,1.953,0,0,0,.144-.765,1.547,1.547,0,0,0-.121-.639,3.052,3.052,0,0,0-.3-.522,5.511,5.511,0,0,1-.4-.666,2.007,2.007,0,0,1-.185-.918h.792a1.471,1.471,0,0,0,.162.707,5.889,5.889,0,0,0,.378.608,3.16,3.16,0,0,1,.351.634,2.139,2.139,0,0,1,.144.823,2.272,2.272,0,0,1-.27,1.13,1.887,1.887,0,0,1-.756.747A2.29,2.29,0,0,1,112.392.09Zm5.085,0a2.415,2.415,0,0,1-1.012-.207,1.668,1.668,0,0,1-.72-.612,1.8,1.8,0,0,1-.266-1.008,1.993,1.993,0,0,1,.036-.382,1.565,1.565,0,0,1,.081-.293h.756a2.082,2.082,0,0,0-.058.3,2.91,2.91,0,0,0-.023.378,1.117,1.117,0,0,0,.329.873,1.259,1.259,0,0,0,.877.3,1.2,1.2,0,0,0,.864-.3,1.209,1.209,0,0,0,.315-.913,1.288,1.288,0,0,0-.2-.756A4.6,4.6,0,0,0,118-3.087q-.216-.216-.432-.455a2.082,2.082,0,0,1-.355-.549,1.778,1.778,0,0,1-.14-.734h.792a1.124,1.124,0,0,0,.212.684,4.94,4.94,0,0,0,.491.567q.225.225.432.473a2.229,2.229,0,0,1,.342.567,1.921,1.921,0,0,1,.135.752,1.83,1.83,0,0,1-.261.981,1.788,1.788,0,0,1-.711.657A2.191,2.191,0,0,1,117.477.09Zm8.775,2.16a2.674,2.674,0,0,0-1.138-1.026,3.456,3.456,0,0,0-1.526-.351,3.114,3.114,0,0,0-.864.121,3.749,3.749,0,0,0-.819.347L121.59.765a4.281,4.281,0,0,1,.6-.234,2.649,2.649,0,0,1,.634-.117V.387A4.243,4.243,0,0,1,121.64-.2a2.816,2.816,0,0,1-.855-.981,3.072,3.072,0,0,1-.319-1.462,2.726,2.726,0,0,1,.454-1.647,1.542,1.542,0,0,1,1.327-.621,1.341,1.341,0,0,1,.81.229,1.3,1.3,0,0,1,.459.626h.045a1.335,1.335,0,0,1,.477-.626,1.4,1.4,0,0,1,.828-.229,1.411,1.411,0,0,1,.841.229,1.292,1.292,0,0,1,.464.626h.045a1.272,1.272,0,0,1,.472-.626,1.372,1.372,0,0,1,.806-.229,1.561,1.561,0,0,1,.977.306,1.848,1.848,0,0,1,.6.855,3.657,3.657,0,0,1,.2,1.269,4.485,4.485,0,0,1-.122,1.071,4.241,4.241,0,0,1-.373.972L128.1-.693a3.668,3.668,0,0,0,.288-.859,4.972,4.972,0,0,0,.081-.941,2.548,2.548,0,0,0-.275-1.319.852.852,0,0,0-.76-.445.737.737,0,0,0-.63.306,1.437,1.437,0,0,0-.225.864v1.449l-.756-1.449a1.485,1.485,0,0,0-.22-.837.814.814,0,0,0-.733-.333.841.841,0,0,0-.707.306,1.377,1.377,0,0,0-.238.864v1.449h-.756V-3.087a1.534,1.534,0,0,0-.212-.837.719.719,0,0,0-.652-.333.867.867,0,0,0-.752.4,2.153,2.153,0,0,0-.274,1.215,2.715,2.715,0,0,0,.2,1.093,2.321,2.321,0,0,0,.553.788,2.989,2.989,0,0,0,.8.526,4.718,4.718,0,0,0,.932.311,9.037,9.037,0,0,1,1.215.347A4.329,4.329,0,0,1,126.081,1a2.538,2.538,0,0,1,.774.923ZM132.219.09a2.415,2.415,0,0,1-1.012-.207,1.668,1.668,0,0,1-.72-.612,1.8,1.8,0,0,1-.266-1.008,1.993,1.993,0,0,1,.036-.382,1.565,1.565,0,0,1,.081-.293h.756a2.081,2.081,0,0,0-.059.3,2.912,2.912,0,0,0-.022.378,1.117,1.117,0,0,0,.328.873,1.259,1.259,0,0,0,.878.3,1.2,1.2,0,0,0,.864-.3,1.209,1.209,0,0,0,.315-.913,1.288,1.288,0,0,0-.2-.756,4.6,4.6,0,0,0-.454-.549q-.216-.216-.432-.455a2.082,2.082,0,0,1-.355-.549,1.778,1.778,0,0,1-.139-.734h.792a1.124,1.124,0,0,0,.211.684,4.94,4.94,0,0,0,.491.567q.225.225.432.473a2.23,2.23,0,0,1,.342.567,1.921,1.921,0,0,1,.135.752,1.83,1.83,0,0,1-.261.981,1.788,1.788,0,0,1-.711.657A2.191,2.191,0,0,1,132.219.09Z" transform="translate(3573 2933)"/>
    </g>
  </g>
</svg>
