<svg xmlns="http://www.w3.org/2000/svg" viewBox="229 17 207.116 49">
  <defs>
    <style>
      .cls-1 {
        fill: #ec1c24;
      }

      .cls-2, .cls-8 {
        fill: #000001;
      }

      .cls-3, .cls-7 {
        fill: #fff;
      }

      .cls-4 {
        fill: none;
        stroke: #000001;
        stroke-miterlimit: 2.613;
        stroke-width: 2px;
      }

      .cls-5 {
        fill: #fff100;
      }

      .cls-5, .cls-6, .cls-7, .cls-8 {
        fill-rule: evenodd;
      }

      .cls-6 {
        fill: #ce0c16;
      }

      .cls-9 {
        font-size: 9px;
        font-family: NotoSansGeorgian-Regular, Noto Sans Georgian;
      }
    </style>
  </defs>
  <g id="Group_329" data-name="Group 329" transform="translate(0 1)">
    <g id="master_on_ge_copy" data-name="master_on_ge copy" transform="translate(160.2 -229.1)">
      <g id="Group_2" data-name="Group 2" transform="translate(69.8 246.815)">
        <path id="Path_1" data-name="Path 1" class="cls-1" d="M72,248.5h4.5l5.631,16.924L87.793,248.5h4.5l4.082,24.253H91.9l-2.592-15.315-5.155,15.315H80.076l-5.095-15.315-2.652,15.315H67.8Z" transform="translate(-67.8 -248.5)"/>
      </g>
      <g id="Group_3" data-name="Group 3" transform="translate(99.698 252.715)">
        <path id="Path_2" data-name="Path 2" class="cls-2" d="M185.563,268.717h4.5v17.937h-4.5v-1.907a8.984,8.984,0,0,1-2.652,1.817,7.648,7.648,0,0,1-2.86.566,8.018,8.018,0,0,1-6.019-2.682,9.34,9.34,0,0,1-2.533-6.7,9.556,9.556,0,0,1,2.443-6.793A7.877,7.877,0,0,1,179.9,268.3a8.007,8.007,0,0,1,3.039.6,8.486,8.486,0,0,1,2.622,1.818Zm-4.737,3.695a4.53,4.53,0,0,0-3.456,1.49A5.279,5.279,0,0,0,176,277.686a5.372,5.372,0,0,0,1.4,3.814,4.472,4.472,0,0,0,3.456,1.49,4.658,4.658,0,0,0,3.516-1.49,5.42,5.42,0,0,0,1.4-3.873,5.249,5.249,0,0,0-1.4-3.784A4.783,4.783,0,0,0,180.826,272.412Z" transform="translate(-171.5 -268.3)"/>
      </g>
      <g id="Group_4" data-name="Group 4" transform="translate(120.593 252.715)">
        <path id="Path_3" data-name="Path 3" class="cls-2" d="M264.065,271.22l-2.771,2.771a4.61,4.61,0,0,0-3.069-1.668,2.019,2.019,0,0,0-1.192.328.963.963,0,0,0-.149,1.46,4.991,4.991,0,0,0,1.341.834l1.639.834a9.877,9.877,0,0,1,3.575,2.622,5.148,5.148,0,0,1,.983,3.128,5.242,5.242,0,0,1-1.758,3.993,6.686,6.686,0,0,1-4.708,1.609,7.418,7.418,0,0,1-6.257-3.069l2.771-3.009a6.36,6.36,0,0,0,1.847,1.49,4.028,4.028,0,0,0,1.877.566,2.33,2.33,0,0,0,1.43-.417,1.278,1.278,0,0,0,.536-.983c0-.685-.655-1.371-1.966-2.026l-1.52-.745c-2.89-1.46-4.35-3.277-4.35-5.482a4.725,4.725,0,0,1,1.639-3.635,5.968,5.968,0,0,1,4.2-1.52,7.269,7.269,0,0,1,3.277.775A6.743,6.743,0,0,1,264.065,271.22Z" transform="translate(-251.7 -268.3)"/>
      </g>
      <g id="Group_5" data-name="Group 5" transform="translate(136.074 246.517)">
        <path id="Path_4" data-name="Path 4" class="cls-2" d="M302.594,247.5h4.5v6.615h2.682v3.873h-2.682v14.063h-4.5V257.988H300.3v-3.873h2.294Z" transform="translate(-300.3 -247.5)"/>
      </g>
      <g id="Group_6" data-name="Group 6" transform="translate(147.068 252.685)">
        <path id="Path_5" data-name="Path 5" class="cls-2" d="M356.06,278.926H341.61a4.822,4.822,0,0,0,1.669,3.039,5.244,5.244,0,0,0,3.456,1.132,6.009,6.009,0,0,0,4.32-1.758l3.784,1.788a9.2,9.2,0,0,1-3.4,2.98,10.457,10.457,0,0,1-4.708.953,9.414,9.414,0,0,1-6.883-2.652,9.12,9.12,0,0,1-2.652-6.674,9.418,9.418,0,0,1,2.652-6.823A8.827,8.827,0,0,1,346.5,268.2a9.134,9.134,0,0,1,6.883,2.711,9.861,9.861,0,0,1,2.652,7.151Zm-4.5-3.546a4.532,4.532,0,0,0-1.758-2.443,5.054,5.054,0,0,0-3.039-.953,5.532,5.532,0,0,0-3.307,1.043,5.97,5.97,0,0,0-1.639,2.324h9.743Z" transform="translate(-337.2 -268.2)"/>
      </g>
      <g id="Group_7" data-name="Group 7" transform="translate(168.461 252.685)">
        <path id="Path_6" data-name="Path 6" class="cls-2" d="M409.03,268.647h3.844v2.264a4.756,4.756,0,0,1,1.668-2.026,4.123,4.123,0,0,1,2.264-.685,4.184,4.184,0,0,1,1.818.447l-1.4,3.873a3,3,0,0,0-1.311-.387,2.052,2.052,0,0,0-1.758,1.281c-.477.864-.715,2.533-.715,5.035l.03.864v7.24H409V268.647Z" transform="translate(-409 -268.2)"/>
      </g>
      <g id="Group_8" data-name="Group 8" transform="translate(179.621 246.219)">
        <path id="Path_7" data-name="Path 7" class="cls-2" d="M455.763,246.5a12.1,12.1,0,0,1,8.849,3.724,12.361,12.361,0,0,1,3.695,9.088,12.513,12.513,0,0,1-12.544,12.633,11.92,11.92,0,0,1-9.058-3.784,12.488,12.488,0,0,1-3.605-8.968,12.842,12.842,0,0,1,1.669-6.406,12.065,12.065,0,0,1,4.618-4.618A12.977,12.977,0,0,1,455.763,246.5Zm-.03,4.5a7.556,7.556,0,0,0-5.661,2.354,8.18,8.18,0,0,0-2.294,5.959,7.775,7.775,0,0,0,2.89,6.376,7.9,7.9,0,0,0,5.155,1.817,7.593,7.593,0,0,0,5.6-2.384,8.047,8.047,0,0,0,2.324-5.84,8.165,8.165,0,0,0-2.324-5.87A7.7,7.7,0,0,0,455.733,251Z" transform="translate(-443.1 -246.5)"/>
        <path id="Path_8" data-name="Path 8" class="cls-2" d="M540.56,268.647h4.5v1.847a10.213,10.213,0,0,1,2.771-1.788,6.856,6.856,0,0,1,2.533-.506,6.14,6.14,0,0,1,4.529,1.877,6.378,6.378,0,0,1,1.549,4.678v11.858H552v-7.866a18.426,18.426,0,0,0-.3-4.261,2.8,2.8,0,0,0-1.013-1.609,2.885,2.885,0,0,0-1.758-.566,3.26,3.26,0,0,0-2.354.924,4.959,4.959,0,0,0-1.371,2.533A21.17,21.17,0,0,0,545,279.4v7.181h-4.5V268.647Z" transform="translate(-511.479 -261.734)"/>
      </g>
      <g id="Group_9" data-name="Group 9" transform="translate(228.098 266.361)">
        <path id="Path_9" data-name="Path 9" d="M608.362,314.1a2.543,2.543,0,1,1-1.817.745A2.569,2.569,0,0,1,608.362,314.1Z" transform="translate(-605.8 -314.1)"/>
      </g>
      <g id="Group_10" data-name="Group 10" transform="translate(235.828 252.655)">
        <path id="Path_10" data-name="Path 10" class="cls-2" d="M649.163,268.577h4.469v15.374c0,3.039-.6,5.274-1.818,6.7-1.639,1.937-4.112,2.89-7.389,2.89a12.8,12.8,0,0,1-4.439-.656,8.058,8.058,0,0,1-3.039-1.937,7.7,7.7,0,0,1-1.818-3.1h4.976a3.973,3.973,0,0,0,1.7,1.132,6.785,6.785,0,0,0,2.443.387,6.289,6.289,0,0,0,2.92-.566,3.369,3.369,0,0,0,1.549-1.46,7.435,7.435,0,0,0,.447-3.069,6.927,6.927,0,0,1-2.5,1.7,7.661,7.661,0,0,1-2.95.507,8.152,8.152,0,0,1-6.108-2.592,10.049,10.049,0,0,1,.149-13.438,7.879,7.879,0,0,1,5.691-2.354,7.393,7.393,0,0,1,2.92.566,9.5,9.5,0,0,1,2.771,1.877v-1.966Zm-4.648,3.754a4.67,4.67,0,0,0-3.516,1.43,5.38,5.38,0,0,0,.06,7.24,4.831,4.831,0,0,0,3.546,1.43,4.671,4.671,0,0,0,3.456-1.4,5.545,5.545,0,0,0,0-7.3A4.714,4.714,0,0,0,644.515,272.331Z" transform="translate(-635.1 -268.1)"/>
      </g>
      <g id="Group_11" data-name="Group 11" transform="translate(257.055 252.685)">
        <path id="Path_11" data-name="Path 11" class="cls-2" d="M728.56,278.926H714.11a4.823,4.823,0,0,0,1.668,3.039,5.244,5.244,0,0,0,3.456,1.132,6.009,6.009,0,0,0,4.32-1.758l3.784,1.788a9.194,9.194,0,0,1-3.4,2.98,10.457,10.457,0,0,1-4.708.953,9.414,9.414,0,0,1-6.883-2.652,9.12,9.12,0,0,1-2.652-6.674,9.418,9.418,0,0,1,2.652-6.823A8.827,8.827,0,0,1,719,268.2a9.134,9.134,0,0,1,6.883,2.711,9.861,9.861,0,0,1,2.652,7.151Zm-4.5-3.546a4.533,4.533,0,0,0-1.758-2.443,5.054,5.054,0,0,0-3.039-.953,5.532,5.532,0,0,0-3.307,1.043,5.971,5.971,0,0,0-1.639,2.324h9.743Z" transform="translate(-709.7 -268.2)"/>
      </g>
      <path id="Path_2303" data-name="Path 2303" class="cls-3" d="M12.752,0A12.842,12.842,0,1,1,0,12.842,12.8,12.8,0,0,1,12.752,0Z" transform="translate(179.681 246.1)"/>
      <ellipse id="Ellipse_2" data-name="Ellipse 2" class="cls-4" cx="12.752" cy="12.842" rx="12.752" ry="12.842" transform="translate(179.681 246.1)"/>
      <path id="Path_12" data-name="Path 12" class="cls-5" d="M478.741,267.49c-.149-.6.149-3.1-2.086-3.635-.953,1.341-.924,1.1-.6-.238a1.837,1.837,0,0,0-2.294-.03c.089.387.3.924.387,1.281a2.786,2.786,0,0,0-.477.119,6.843,6.843,0,0,0-.447-1.132c-2.324.536-1.937,3.426-2.086,3.635-.685-.209-.983.179-1.043.834.924,1.1,6.436.864,7.747.626,3.188-.328,2.026-1.758.894-1.46" transform="translate(-282.434 -12.004)"/>
      <path id="Path_13" data-name="Path 13" class="cls-6" d="M463.875,303.158l2.443-.089.834,2.652,5.78.06.8-2.979,2.056.328.924.8.179,2.86-13.646.06-.149-1.758.238-1.192Z" transform="translate(-277.52 -39.806)"/>
      <path id="Path_14" data-name="Path 14" class="cls-6" d="M461.462,306.265h.06l14.421-.089h.179c.3-4.708-.626-4.886-3.963-4.976h0l-.685,3.039H466.2c-.149-.983-.447-2.175-.626-3.009-5.065-.238-4.082,2.294-4.112,5.035m.864-.775c-.03-2.264-.149-3.158,2.562-3.218l.656,2.8H472.1c.328-1.162.566-2.2.745-2.831,2.652.209,2.443.864,2.443,3.218C470.967,305.461,466.647,305.461,462.326,305.491Z" transform="translate(-276.329 -38.683)"/>
      <path id="Path_15" data-name="Path 15" class="cls-7" d="M470.9,283.543l.209-.953,3.1.3,3.873-.06,1.877-.328.179,1.46-.775,1.013-.6.8-.655,1.609-1.192.983-2.026.3-1.966-.894-.894-2.086-.655-.834Z" transform="translate(-282.996 -25.555)"/>
      <path id="Path_16" data-name="Path 16" class="cls-8" d="M477.115,268.58c-.983,1.043-.953.089-1.281,1.818-.417,2.682-4.827,3.1-5.542.209-.387-1.639.06-1.162-1.222-1.788-.03-.477-.03-.953-.06-1.4a28.637,28.637,0,0,0,4.022.447,24.061,24.061,0,0,0,3.993-.447c.06.387.06.775.089,1.162m-3.844,5.035c2.443-.149,2.95-1.4,3.605-3.426.119-.507.447-.268.8-.864.358-.3.3-1.639.328-2.145.209-.06.447-.089.655-.149.089-.745.358-1.817-.8-2.145,0-.06-.03-.149-.03-.119-.089-.417-.179-.834-.238-1.251a3.919,3.919,0,0,0-2.89-2.622,2.519,2.519,0,0,0-3.1-.119c-2.056.477-2.92,1.52-3.218,3.993-.924.477-.983.387-.924,1.847.089.536.149.417.715.536.06.775-.179,2,.6,2.413C469.875,270.189,469.279,273.764,473.271,273.615Zm-1.281-11.948a1.549,1.549,0,0,1,2.086,0l-.268,1.162c.179.03.328.06.506.089.179-.358.3-.775.447-1.132,2.235.536,1.937,3.039,2.086,3.635a1.162,1.162,0,0,1,.924.3c-.03.685.179.6-1.877.953-1.192.209-6.734.447-7.568-.566.06-.655.387-.626.894-.715.149-.209-.238-3.1,2.086-3.635.149.358.238.655.447,1.132a2.79,2.79,0,0,0,.477-.119A5.671,5.671,0,0,0,471.99,261.667Z" transform="translate(-280.57 -9.966)"/>
    </g>
    <text id="ყველა_ხელოსანი_და_მასალა_ერთ_სივრცეში" data-name="ყველა ხელოსანი და მასალა ერთ სივრცეში" class="cls-9" transform="translate(229 62)"><tspan x="0" y="0">ყველა </tspan><tspan class="cls-1" y="0">ხელოსანი </tspan><tspan y="0">და </tspan><tspan class="cls-1" y="0">მასალა </tspan><tspan y="0">ერთ სივრცეში</tspan></text>
  </g>
</svg>
