<svg xmlns="http://www.w3.org/2000/svg" viewBox="1116.363 1874 90.615 16.188">
  <defs>
    <style>
      .cls-1 {
        fill: #ff5f00;
      }

      .cls-2 {
        fill: #eb001b;
      }

      .cls-3 {
        fill: #f79e1b;
      }
    </style>
  </defs>
  <g id="Group_255" data-name="Group 255" transform="translate(0 -70)">
    <g id="mastercard" transform="translate(1116.363 1944)">
      <g id="_Group_" data-name="&lt;Group&gt;" transform="translate(0 0)">
        <rect id="Rectangle_279" data-name="Rectangle 279" class="cls-1" width="7.082" height="12.725" transform="translate(9.564 1.732)"/>
        <path id="_Path_" data-name="&lt;Path&gt;" class="cls-2" d="M9.992,50.934a8.054,8.054,0,0,1,3.086-6.363,8.094,8.094,0,1,0,0,12.725,8.054,8.054,0,0,1-3.086-6.363Z" transform="translate(0.02 -42.84)"/>
        <path id="Path_291" data-name="Path 291" class="cls-3" d="M39.087,50.942A8.094,8.094,0,0,1,26,57.3a8.094,8.094,0,0,0,0-12.725,8.094,8.094,0,0,1,13.087,6.363Z" transform="translate(-12.903 -42.847)"/>
      </g>
      <path id="_Compound_Path_" data-name="&lt;Compound Path&gt;" d="M71.262,56.9V53.518a2.013,2.013,0,0,0-2.119-2.139,2.084,2.084,0,0,0-1.893.956,1.978,1.978,0,0,0-1.777-.956,1.782,1.782,0,0,0-1.576.815v-.68H62.73V56.9h1.183V53.91a1.251,1.251,0,0,1,1.319-1.43c.815,0,1.173.5,1.173,1.419v3h1.183V53.91a1.268,1.268,0,0,1,1.319-1.43c.8,0,1.183.5,1.183,1.419v3Zm17.5-5.381H86.846V49.879H85.663v1.631H84.571v1.067h1.092v2.456c0,1.248.5,2.013,1.867,2.013A2.748,2.748,0,0,0,89,56.629l-.337-1.007a2.159,2.159,0,0,1-1.037.3c-.584,0-.775-.362-.775-.9V52.582h1.913Zm9.987-.136a1.586,1.586,0,0,0-1.419.79v-.654H96.168V56.9h1.173v-3.02c0-.891.383-1.384,1.148-1.384a1.908,1.908,0,0,1,.73.136l.362-1.1A2.517,2.517,0,0,0,98.745,51.379Zm-15.1.564a4.027,4.027,0,0,0-2.195-.564c-1.364,0-2.24.654-2.24,1.721,0,.876.654,1.419,1.857,1.586l.554.081c.639.091.946.257.946.564,0,.418-.428.654-1.228.654a2.869,2.869,0,0,1-1.792-.564l-.574.911a3.881,3.881,0,0,0,2.331.7c1.555,0,2.456-.73,2.456-1.757,0-.946-.71-1.44-1.883-1.611l-.554-.081c-.5-.065-.911-.171-.911-.529s.383-.629,1.007-.629a3.468,3.468,0,0,1,1.676.463Zm31.369-.564a1.586,1.586,0,0,0-1.419.79v-.654h-1.158V56.9h1.173v-3.02c0-.891.383-1.384,1.148-1.384a1.907,1.907,0,0,1,.73.136l.362-1.1A2.517,2.517,0,0,0,115.014,51.379ZM99.913,54.2a2.718,2.718,0,0,0,2.869,2.824,2.819,2.819,0,0,0,1.938-.644l-.564-.946a2.366,2.366,0,0,1-1.409.5,1.727,1.727,0,0,1,0-3.443,2.366,2.366,0,0,1,1.409.5l.564-.946a2.819,2.819,0,0,0-1.938-.644,2.718,2.718,0,0,0-2.869,2.824Zm10.968,0V51.514h-1.173v.654a2.044,2.044,0,0,0-1.7-.79,2.829,2.829,0,0,0,0,5.653,2.044,2.044,0,0,0,1.716-.81v.654H110.9Zm-4.359,0a.83.83,0,1,0,.015.005ZM92.393,51.379a2.824,2.824,0,1,0,.081,5.648,3.272,3.272,0,0,0,2.2-.755l-.574-.866a2.562,2.562,0,0,1-1.54.564,1.51,1.51,0,0,1-1.611-1.319h4V54.2A2.573,2.573,0,0,0,92.393,51.379Zm0,1.047a1.339,1.339,0,0,1,1.364,1.3h-2.8a1.384,1.384,0,0,1,1.43-1.3Zm29.366,1.782V49.35h-1.173v2.814a2.044,2.044,0,0,0-1.7-.79,2.829,2.829,0,0,0,0,5.653,2.044,2.044,0,0,0,1.7-.805v.654h1.173Zm-4.359,0a1.616,1.616,0,1,1,.439,1.217A1.631,1.631,0,0,1,117.4,54.207Zm-39.539,0V51.514H76.688v.654a2.044,2.044,0,0,0-1.7-.79,2.829,2.829,0,0,0,0,5.653,2.044,2.044,0,0,0,1.7-.81v.654h1.173Zm-4.359,0a1.616,1.616,0,1,1,.439,1.217A1.631,1.631,0,0,1,73.5,54.207Z" transform="translate(-31.144 -46.073)"/>
    </g>
  </g>
</svg>
