<svg xmlns="http://www.w3.org/2000/svg" viewBox="2831.271 9169 12.339 12.31">
  <g id="Group_5" data-name="Group 5" transform="translate(2831.271 9169)">
    <path id="Path_4" data-name="Path 4" d="M3.078,9.95a4.292,4.292,0,0,1-1.1-1.58,4.336,4.336,0,0,1,.9-4.656L4.006,4.85a.116.116,0,0,0,.19-.075L4.817.712A.1.1,0,0,0,4.7.6L.637,1.218a.116.116,0,0,0-.075.19L1.7,2.547A5.977,5.977,0,0,0,6.107,12.706l.255-1.67A4.337,4.337,0,0,1,3.078,9.95Z" transform="translate(0 -0.596)"/>
    <path id="Path_5" data-name="Path 5" d="M243.4,18.651A5.977,5.977,0,0,0,239,8.492l-.255,1.67a4.34,4.34,0,0,1,3.285,1.086,4.292,4.292,0,0,1,1.1,1.58,4.336,4.336,0,0,1-.9,4.656L241.1,16.348a.116.116,0,0,0-.19.075l-.621,4.063a.1.1,0,0,0,.115.115l4.066-.621a.117.117,0,0,0,.075-.19Z" transform="translate(-232.764 -8.293)"/>
  </g>
</svg>
