<svg xmlns="http://www.w3.org/2000/svg" viewBox="493 33 16 16">
  <defs>
    <style>
      .cls-1 {
        fill: #ec1c24;
      }
    </style>
  </defs>
  <g id="Group_255" data-name="Group 255" transform="translate(0 1)">
    <g id="instagram" transform="translate(493 32)">
      <g id="Group_178" data-name="Group 178">
        <g id="Group_177" data-name="Group 177">
          <path id="Path_2310" data-name="Path 2310" class="cls-1" d="M11.677,0H4.323A4.328,4.328,0,0,0,0,4.323v7.354A4.328,4.328,0,0,0,4.323,16h7.354A4.328,4.328,0,0,0,16,11.677V4.323A4.328,4.328,0,0,0,11.677,0Zm3.031,11.677a3.034,3.034,0,0,1-3.031,3.031H4.323a3.034,3.034,0,0,1-3.031-3.031V4.323A3.034,3.034,0,0,1,4.323,1.293h7.354a3.034,3.034,0,0,1,3.031,3.031Z"/>
        </g>
      </g>
      <g id="Group_180" data-name="Group 180" transform="translate(4.443 4.38)">
        <g id="Group_179" data-name="Group 179">
          <path id="Path_2311" data-name="Path 2311" class="cls-1" d="M149.322,143.233a3.587,3.587,0,1,0-3.557,4.115,3.636,3.636,0,0,0,.534-.04,3.588,3.588,0,0,0,3.023-4.075Zm-3.212,2.8a2.3,2.3,0,1,1,1.934-2.607A2.279,2.279,0,0,1,146.11,146.029Z" transform="translate(-142.185 -140.171)"/>
        </g>
      </g>
      <g id="Group_182" data-name="Group 182" transform="translate(11.398 3.309)">
        <g id="Group_181" data-name="Group 181">
          <path id="Path_2312" data-name="Path 2312" class="cls-1" d="M365.844,106.082a.646.646,0,1,0,.189.457A.651.651,0,0,0,365.844,106.082Z" transform="translate(-364.741 -105.893)"/>
        </g>
      </g>
    </g>
  </g>
</svg>
