<svg xmlns="http://www.w3.org/2000/svg" viewBox="469.9 32.9 8.876 16.2">
  <defs>
    <style>
      .cls-1 {
        stroke: #000;
        stroke-width: 0.2px;
      }
    </style>
  </defs>
  <path id="Path_2309" data-name="Path 2309" class="cls-1" d="M186.8,16H184a.383.383,0,0,1-.383-.383V9.051h-1.957a.383.383,0,0,1-.383-.383V5.96a.383.383,0,0,1,.383-.383h1.957V3.964A3.632,3.632,0,0,1,187.482,0a19.14,19.14,0,0,1,2.139.111.382.382,0,0,1,.332.38V2.912a.383.383,0,0,1-.383.383l-1.432,0c-.827,0-.96.275-.96.936V5.578h2.3a.383.383,0,0,1,.38.432l-.349,2.708a.383.383,0,0,1-.38.334h-1.95v6.567A.382.382,0,0,1,186.8,16Zm-2.413-.765h2.031V8.668a.383.383,0,0,1,.383-.383h2l.251-1.943H186.8a.383.383,0,0,1-.383-.383V4.231c0-.73.179-1.7,1.725-1.7h1.051V.836C188.8.8,188.17.765,187.482.765a2.894,2.894,0,0,0-3.1,3.2v2a.383.383,0,0,1-.383.383h-1.957V8.285H184a.383.383,0,0,1,.383.383v6.567Z" transform="translate(288.722 33)"/>
</svg>
