<svg xmlns="http://www.w3.org/2000/svg" viewBox="523.9 32.9 16.2 16.018">
  <defs>
    <style>
      .cls-1 {
        stroke: #000;
        stroke-width: 0.2px;
      }
    </style>
  </defs>
  <g id="linkedin-social-outline-logotype" transform="translate(524 29.523)">
    <g id="linkedin" transform="translate(0 3.477)">
      <g id="Group_183" data-name="Group 183" transform="translate(0 0)">
        <path id="Path_2313" data-name="Path 2313" class="cls-1" d="M3.492,7.9H.461a.376.376,0,0,0-.376.376v10.6a.376.376,0,0,0,.376.376H3.492a.376.376,0,0,0,.376-.376V8.271A.376.376,0,0,0,3.492,7.9Zm-.376,10.6H.836V8.647h2.28ZM11.943,7.767A4.143,4.143,0,0,0,8.949,8.954L8.88,8.235A.376.376,0,0,0,8.507,7.9H8.5l-2.763.053a.376.376,0,0,0-.368.392c.035.774.033,1.678.032,2.725V18.92a.376.376,0,0,0,.376.376H8.806a.376.376,0,0,0,.376-.376V12.795a2,2,0,0,1,.081-.674,1.714,1.714,0,0,1,1.528-.978c.927,0,1.48.705,1.48,1.887v5.89a.376.376,0,0,0,.376.376h2.978A.376.376,0,0,0,16,18.92V12.645C16,9.59,14.483,7.767,11.943,7.767Zm3.306,10.777H13.022V13.03c0-1.6-.876-2.638-2.231-2.638a2.476,2.476,0,0,0-2.226,1.453,2.593,2.593,0,0,0-.134.95v5.749H6.15V11.067c0-.889,0-1.676-.018-2.375l2.034-.039.117,1.211a.376.376,0,0,0,.374.339h.064a.375.375,0,0,0,.318-.176,3.348,3.348,0,0,1,2.9-1.509c2.1,0,3.306,1.5,3.306,4.128v5.9h0ZM2.1,3.477a1.985,1.985,0,0,0-2.1,2,1.963,1.963,0,0,0,2.062,2A2,2,0,1,0,2.1,3.477ZM2.062,6.72A1.249,1.249,0,1,1,2.1,4.228,1.23,1.23,0,0,1,3.436,5.475,1.244,1.244,0,0,1,2.062,6.72Z" transform="translate(0 -3.477)"/>
      </g>
    </g>
  </g>
</svg>
