<svg xmlns="http://www.w3.org/2000/svg" viewBox="7727.774 7005.571 10.286 10.286">
  <path id="Path_2339" data-name="Path 2339" d="M10.118-3.214a.115.115,0,0,1-.007.047A5.2,5.2,0,0,1,8.317-.258,4.909,4.909,0,0,1,5.116.857,5.017,5.017,0,0,1,3.224.489,5.112,5.112,0,0,1,1.594-.562L.73.3a.412.412,0,0,1-.3.127A.412.412,0,0,1,.127.3.412.412,0,0,1,0,0V-3a.412.412,0,0,1,.127-.3.412.412,0,0,1,.3-.127h3a.412.412,0,0,1,.3.127.412.412,0,0,1,.127.3.412.412,0,0,1-.127.3l-.917.917A3.455,3.455,0,0,0,3.891-1.1a3.342,3.342,0,0,0,1.252.241,3.369,3.369,0,0,0,1.674-.435,3.376,3.376,0,0,0,1.246-1.2,8.109,8.109,0,0,0,.355-.783.2.2,0,0,1,.2-.154H9.9a.206.206,0,0,1,.151.064A.206.206,0,0,1,10.118-3.214Zm.167-5.357v3a.412.412,0,0,1-.127.3.412.412,0,0,1-.3.127h-3a.412.412,0,0,1-.3-.127.412.412,0,0,1-.127-.3.412.412,0,0,1,.127-.3L7.48-6.8a3.327,3.327,0,0,0-2.337-.917,3.369,3.369,0,0,0-1.674.435,3.376,3.376,0,0,0-1.246,1.2,8.109,8.109,0,0,0-.355.783.2.2,0,0,1-.2.154H.335a.206.206,0,0,1-.151-.064.206.206,0,0,1-.064-.151V-5.4a5.224,5.224,0,0,1,1.808-2.91A4.945,4.945,0,0,1,5.143-9.429a5.053,5.053,0,0,1,1.9.372A5.188,5.188,0,0,1,8.685-8.009l.871-.864A.412.412,0,0,1,9.857-9a.412.412,0,0,1,.3.127A.412.412,0,0,1,10.286-8.571Z" transform="translate(7727.774 7015)"/>
</svg>
