<svg xmlns="http://www.w3.org/2000/svg" viewBox="1062 1875.51 41.276 13.41">
  <defs>
    <style>
      .cls-1 {
        fill: #0066b3;
      }

      .cls-2 {
        fill: #faa634;
      }
    </style>
  </defs>
  <g id="Group_255" data-name="Group 255" transform="translate(0 -70)">
    <g id="visa_1_" data-name="visa (1)" transform="translate(1062 1945.51)">
      <path id="Path_286" data-name="Path 286" class="cls-1" d="M32.227,61.8H28.86l2.1-12.936h3.367L32.227,61.8Z" transform="translate(-14.333 -48.608)"/>
      <path id="Path_287" data-name="Path 287" class="cls-1" d="M11.693,48.86,8.482,57.754,8.1,55.837h0L6.967,50.023a1.439,1.439,0,0,0-1.6-1.163H.06L0,49.076a12.584,12.584,0,0,1,3.524,1.48L6.448,61.8H9.972L15.332,48.86Z" transform="translate(0 -48.608)"/>
      <path id="Path_288" data-name="Path 288" class="cls-1" d="M63.365,57.216l1.767-4.842,1.007,4.842Zm3.7,4.576h3.1l-2.7-12.936H64.759a1.545,1.545,0,0,0-1.555.966L58.17,61.8h3.524l.7-1.923h4.284l.393,1.923Z" transform="translate(-28.89 -48.604)"/>
      <path id="Path_289" data-name="Path 289" class="cls-1" d="M49.3,51.7l.5-2.779a9.72,9.72,0,0,0-3.02-.564c-1.671,0-5.643.73-5.643,4.284,0,3.342,4.656,3.383,4.656,5.139s-4.178,1.44-5.537.332l-.5,2.9a9.433,9.433,0,0,0,3.755.75c2.3,0,5.763-1.193,5.763-4.43,0-3.362-4.7-3.675-4.7-5.139s3.282-1.274,4.722-.5Z" transform="translate(-19.746 -48.36)"/>
      <path id="Path_290" data-name="Path 290" class="cls-2" d="M8.1,55.842,6.967,50.023a1.439,1.439,0,0,0-1.6-1.163H.06L0,49.076a13.057,13.057,0,0,1,5,2.517,10.067,10.067,0,0,1,3.1,4.253Z" transform="translate(0 -48.608)"/>
    </g>
  </g>
</svg>
